<?xml version="1.0" encoding="UTF-8" standalone="no" ?>
<!DOCTYPE svg PUBLIC "-//W3C//DTD SVG 1.1//EN" "http://www.w3.org/Graphics/SVG/1.1/DTD/svg11.dtd">
<svg xmlns="http://www.w3.org/2000/svg" xmlns:xlink="http://www.w3.org/1999/xlink" version="1.1" width="537.73" height="529.4200000000001" xml:space="preserve">
<desc>Created with Fabric.js 1.6.0-rc.1</desc>
<defs></defs>
  <g transform="translate(269.83 306.57) scale(1.12 1.12)">
   <text font-family="Chunky" font-size="40" font-weight="normal" style="stroke: none; stroke-width: 1; stroke-dasharray: none; stroke-linecap: butt; stroke-linejoin: miter; stroke-miterlimit: 10; fill: #993d00; fill-rule: nonzero; opacity: 1;" ><tspan x="-171.45" y="8.98" style="stroke: none; stroke-width: 0; stroke-dasharray: none; stroke-linecap: butt; stroke-linejoin: miter; stroke-miterlimit: 4; fill: #993d00; fill-rule: ; opacity: 1;">M</tspan><tspan x="-134.77" y="8.98" style="stroke: none; stroke-width: 0; stroke-dasharray: none; stroke-linecap: butt; stroke-linejoin: miter; stroke-miterlimit: 4; fill: #993d00; fill-rule: ; opacity: 1;">R</tspan><tspan x="-103.09" y="8.98" style="stroke: none; stroke-width: 0; stroke-dasharray: none; stroke-linecap: butt; stroke-linejoin: miter; stroke-miterlimit: 4; fill: #993d00; fill-rule: ; opacity: 1;">.</tspan><tspan x="-88.28" y="8.98" style="stroke: none; stroke-width: 0; stroke-dasharray: none; stroke-linecap: butt; stroke-linejoin: miter; stroke-miterlimit: 4; fill: #993d00; fill-rule: ; opacity: 1;">A</tspan><tspan x="-55.35" y="8.98" style="stroke: none; stroke-width: 0; stroke-dasharray: none; stroke-linecap: butt; stroke-linejoin: miter; stroke-miterlimit: 4; fill: #993d00; fill-rule: ; opacity: 1;">G</tspan><tspan x="-26.41" y="8.98" style="stroke: none; stroke-width: 0; stroke-dasharray: none; stroke-linecap: butt; stroke-linejoin: miter; stroke-miterlimit: 4; fill: #993d00; fill-rule: ; opacity: 1;">N</tspan><tspan x="3.16" y="8.98" style="stroke: none; stroke-width: 0; stroke-dasharray: none; stroke-linecap: butt; stroke-linejoin: miter; stroke-miterlimit: 4; fill: #993d00; fill-rule: ; opacity: 1;">U</tspan><tspan x="30.7" y="8.98" style="stroke: none; stroke-width: 0; stroke-dasharray: none; stroke-linecap: butt; stroke-linejoin: miter; stroke-miterlimit: 4; fill: #993d00; fill-rule: ; opacity: 1;">S</tspan><tspan x="56.19" y="8.98" style="stroke: none; stroke-width: 0; stroke-dasharray: none; stroke-linecap: butt; stroke-linejoin: miter; stroke-miterlimit: 4; fill: #993d00; fill-rule: ; opacity: 1;">-</tspan><tspan x="81.52" y="8.98" style="stroke: none; stroke-width: 0; stroke-dasharray: none; stroke-linecap: butt; stroke-linejoin: miter; stroke-miterlimit: 4; fill: #993d00; fill-rule: ; opacity: 1;">B</tspan><tspan x="109.47" y="8.98" style="stroke: none; stroke-width: 0; stroke-dasharray: none; stroke-linecap: butt; stroke-linejoin: miter; stroke-miterlimit: 4; fill: #993d00; fill-rule: ; opacity: 1;">B</tspan><tspan x="137.42" y="8.98" style="stroke: none; stroke-width: 0; stroke-dasharray: none; stroke-linecap: butt; stroke-linejoin: miter; stroke-miterlimit: 4; fill: #993d00; fill-rule: ; opacity: 1;">Q</tspan></text>
 </g>
<g style="stroke: none; stroke-width: 1; stroke-dasharray: none; stroke-linecap: butt; stroke-linejoin: miter; stroke-miterlimit: 10; fill: none; fill-rule: nonzero; opacity: 1;" transform="translate(194.1500000000001 213.31) scale(0.12 0.12)" >
  <polygon points="155.18,136 267.52,272 300.02,272 412,136 " style="stroke: none; stroke-width: 1; stroke-dasharray: none; stroke-linecap: butt; stroke-linejoin: miter; stroke-miterlimit: 10; fill: #46b2fa; fill-rule: nonzero; opacity: 1;" transform="  matrix(1 0 0 1 0 0) "/>
  <rect x="211.52" y="160" rx="0" ry="0" width="32" height="16" style="stroke: none; stroke-width: 1; stroke-dasharray: none; stroke-linecap: butt; stroke-linejoin: miter; stroke-miterlimit: 10; fill: #333333; fill-rule: nonzero; opacity: 1;" transform=" matrix(1 0 0 1 0 0) "/>
  <rect x="259.52" y="160" rx="0" ry="0" width="16" height="16" style="stroke: none; stroke-width: 1; stroke-dasharray: none; stroke-linecap: butt; stroke-linejoin: miter; stroke-miterlimit: 10; fill: #333333; fill-rule: nonzero; opacity: 1;" transform=" matrix(1 0 0 1 0 0) "/>
  <path d="M 363.524 456 h -55.976 l 0.472 -181.128 L 468.476 80 h -265.36 c -4.056 -44.784 -41.768 -80 -87.592 -80 c -48.52 0 -88 39.48 -88 88 s 39.48 88 88 88 c 23.576 0 39.728 -7.648 49.88 -15.064 l 94.12 113.936 V 456 h -56 c -27.84 0 -48 19.12 -48 32 v 8 h 256 v -8 C 411.524 475.12 391.364 456 363.524 456 z M 115.524 160 c -39.704 0 -72 -32.296 -72 -72 s 32.296 -72 72 -72 c 37 0 67.536 28.056 71.528 64 H 98.54 l 5.744 6.952 l -41.88 34.904 l 10.248 12.296 l 29.176 -24.312 l -10.056 40.224 l 15.512 3.872 l 12.16 -48.64 l 35.744 43.272 C 147.084 154.28 134.3 160 115.524 160 z M 178.468 480 c 5.392 -4.072 13.832 -8 25.056 -8 h 72 V 269.128 L 172.164 144 h 151.36 v -16 H 158.94 l -26.432 -32 h 302.064 l -26.352 32 h -68.696 v 16 h 55.528 L 293.844 266.912 l -1.816 2.208 L 291.5 472 h 72.024 c 11.256 0 19.704 3.944 25.088 8 H 178.468 z" style="stroke: none; stroke-width: 1; stroke-dasharray: none; stroke-linecap: butt; stroke-linejoin: miter; stroke-miterlimit: 10; fill: #333333; fill-rule: nonzero; opacity: 1;" transform=" matrix(1 0 0 1 0 0) " stroke-linecap="round" />
</g>
<g style="stroke: none; stroke-width: 1; stroke-dasharray: none; stroke-linecap: butt; stroke-linejoin: miter; stroke-miterlimit: 10; fill: none; fill-rule: nonzero; opacity: 1;" transform="translate(262.0799999999999 213.31) scale(0.13 0.13)" >
  <circle cx="376" cy="152" r="88" style="stroke: none; stroke-width: 1; stroke-dasharray: none; stroke-linecap: butt; stroke-linejoin: miter; stroke-miterlimit: 10; fill: #fa4c46; fill-rule: nonzero; opacity: 1;" transform="  matrix(1 0 0 1 0 0) "/>
  <path d="M 96 208 c 31.864 -0.936 74.136 -5.064 96 -16 c 32 -16 57.12 -9.92 72 0 c 24 16 32 40 32.008 64 c 0.008 25.92 -8.008 80 -64.008 96 c -30.768 8.792 -81.472 -4.736 -120 -24 c -32 -16 -72 -48 -72 -88 c 0 -16 8 -32 40 -32 H 96 z" style="stroke: none; stroke-width: 1; stroke-dasharray: none; stroke-linecap: butt; stroke-linejoin: miter; stroke-miterlimit: 10; fill: #fa4c46; fill-rule: nonzero; opacity: 1;" transform=" matrix(1 0 0 1 0 0) " stroke-linecap="round" />
  <path d="M 306.072 345.104 l 7.24 -1.208 c 47.92 -7.984 83.728 -40.08 93.84 -60.312 l 2.984 -5.968 L 404.8 273.6 c -1.464 -1.104 -36.376 -26.768 -72.376 -8.76 c -32.856 16.44 -32.8 55.024 -28.168 73.136 L 306.072 345.104 z M 339.576 279.16 c 6.688 -3.344 13.456 -4.608 19.848 -4.608 c 12.176 0 23.04 4.576 29.512 8.048 c -10.2 13.8 -34.88 35.688 -70.4 43.944 C 317.256 314.24 317.832 290.032 339.576 279.16 z" style="stroke: none; stroke-width: 1; stroke-dasharray: none; stroke-linecap: butt; stroke-linejoin: miter; stroke-miterlimit: 10; fill: #363535; fill-rule: nonzero; opacity: 1;" transform=" matrix(1 0 0 1 0 0) " stroke-linecap="round" />
  <path d="M 496 160 c 0 -88.424 -60.272 -128 -120 -128 c -45.952 0 -81.36 17.728 -118.376 59.28 C 196.968 159.376 158.968 176 64 176 c -46.952 0 -64 38.272 -64 64 c 0 2.656 0.152 5.328 0.384 8 H 0 v 80 l 0.352 2.352 C 14.872 377.472 110.8 464 224 464 c 193.736 0 272 -146.792 272 -208 v -88 h -0.384 C 495.848 165.224 496 162.52 496 160 z M 64 192 c 99.56 0 141.832 -18.52 205.576 -90.08 C 303.696 63.624 334.536 48 376 48 c 71.84 0 104 56.248 104 112 c 0 14.28 -5.28 37.424 -7.64 45.64 C 440.872 307.536 337.856 376 216 376 c -85.64 0 -147.976 -39.776 -177.752 -77 C 23.896 281.072 16 260.12 16 240 C 16 223.4 26.032 192 64 192 z M 224 448 c -103.304 0 -193.832 -78.952 -208 -121.248 v -31.904 c 2.904 4.856 6.112 9.608 9.752 14.152 c 32.104 40.128 98.936 83 190.248 83 c 120.384 0 223.504 -63.688 264 -160.712 V 256 C 480 312.496 406.336 448 224 448 z" style="stroke: none; stroke-width: 1; stroke-dasharray: none; stroke-linecap: butt; stroke-linejoin: miter; stroke-miterlimit: 10; fill: #363535; fill-rule: nonzero; opacity: 1;" transform=" matrix(1 0 0 1 0 0) " stroke-linecap="round" />
  <path d="M 232 296 c 22.056 0 40 -17.944 40 -40 s -17.944 -40 -40 -40 s -40 17.944 -40 40 S 209.944 296 232 296 z M 232 232 c 13.232 0 24 10.768 24 24 s -10.768 24 -24 24 s -24 -10.768 -24 -24 S 218.768 232 232 232 z" style="stroke: none; stroke-width: 1; stroke-dasharray: none; stroke-linecap: butt; stroke-linejoin: miter; stroke-miterlimit: 10; fill: #363535; fill-rule: nonzero; opacity: 1;" transform=" matrix(1 0 0 1 0 0) " stroke-linecap="round" />
  <path d="M 440 152 h -16 c 0 26.472 -21.528 48 -48 48 v 16 C 411.288 216 440 187.288 440 152 z" style="stroke: none; stroke-width: 1; stroke-dasharray: none; stroke-linecap: butt; stroke-linejoin: miter; stroke-miterlimit: 10; fill: #363535; fill-rule: nonzero; opacity: 1;" transform=" matrix(1 0 0 1 0 0) " stroke-linecap="round" />
  <path d="M 156.104 409.136 l -8.216 13.728 c 1.488 0.888 31.904 18.792 77.024 18.792 c 7.672 0 15.776 -0.52 24.224 -1.728 l -2.264 -15.84 C 194.592 431.552 156.48 409.352 156.104 409.136 z" style="stroke: none; stroke-width: 1; stroke-dasharray: none; stroke-linecap: butt; stroke-linejoin: miter; stroke-miterlimit: 10; fill: #363535; fill-rule: nonzero; opacity: 1;" transform=" matrix(1 0 0 1 0 0) " stroke-linecap="round" />
  <path d="M 263.856 424 l 0.152 16 c 1.552 0 10.512 -0.408 34.528 -8.416 l -5.064 -15.168 C 271.776 423.64 263.928 424 263.856 424 z" style="stroke: none; stroke-width: 1; stroke-dasharray: none; stroke-linecap: butt; stroke-linejoin: miter; stroke-miterlimit: 10; fill: #363535; fill-rule: nonzero; opacity: 1;" transform=" matrix(1 0 0 1 0 0) " stroke-linecap="round" />
</g>
<g style="stroke: none; stroke-width: 1; stroke-dasharray: none; stroke-linecap: butt; stroke-linejoin: miter; stroke-miterlimit: 10; fill: none; fill-rule: nonzero; opacity: 1;" transform="translate(10 10.000000000000028)" >
  <path d="M 516.727 266.696 c -0.665 -34.825 -8.221 -69.54 -22.175 -101.283 c -13.908 -31.771 -34.094 -60.551 -58.876 -84.333 c -24.767 -23.8 -54.139 -42.615 -85.929 -55.027 c -31.773 -12.46 -65.937 -18.412 -99.687 -17.69 c -33.755 0.668 -67.36 8.007 -98.091 21.539 c -30.754 13.488 -58.615 33.058 -81.632 57.071 c -23.033 24.001 -41.229 52.452 -53.222 83.229 C 5.077 200.962 -0.66 234.013 0.06 266.696 c 0.67 32.688 7.793 65.182 20.903 94.899 c 13.067 29.738 32.019 56.681 55.266 78.931 c 23.234 22.268 50.766 39.846 80.528 51.417 c 29.749 11.616 61.69 17.136 93.303 16.419 c 31.62 -0.671 63.001 -7.58 91.707 -20.268 c 28.724 -12.646 54.747 -30.979 76.231 -53.461 c 21.503 -22.469 38.461 -49.08 49.611 -77.827 c 6.79 -17.427 11.396 -35.624 13.824 -54.062 c 0.649 0.037 1.302 0.063 1.96 0.063 c 18.409 0 33.333 -14.923 33.333 -33.333 c 0 -0.936 -0.049 -1.861 -0.124 -2.777 L 516.727 266.696 L 516.727 266.696 z M 463.762 355.21 c -12.226 27.71 -29.94 52.812 -51.655 73.532 c -21.703 20.732 -47.396 37.076 -75.127 47.807 c -27.724 10.77 -57.443 15.859 -86.919 15.146 c -29.481 -0.677 -58.644 -7.154 -85.323 -18.997 c -26.692 -11.806 -50.877 -28.901 -70.83 -49.849 c -19.968 -20.938 -35.691 -45.711 -46.001 -72.427 c -10.349 -26.712 -15.223 -55.321 -14.512 -83.728 c 0.678 -28.413 6.941 -56.465 18.361 -82.131 c 11.384 -25.677 27.863 -48.943 48.045 -68.13 c 20.172 -19.202 44.026 -34.307 69.726 -44.195 c 25.697 -9.928 53.195 -14.587 80.534 -13.877 c 27.343 0.68 54.286 6.728 78.939 17.726 c 24.662 10.963 47.008 26.824 65.429 46.241 c 18.436 19.405 32.922 42.341 42.391 67.025 c 9.504 24.684 13.948 51.072 13.241 77.342 h 0.125 c -0.076 0.916 -0.125 1.841 -0.125 2.777 c 0 17.193 13.018 31.34 29.732 33.137 C 476.551 320.747 471.184 338.453 463.762 355.21 z" style="stroke: none; stroke-width: 1; stroke-dasharray: none; stroke-linecap: butt; stroke-linejoin: miter; stroke-miterlimit: 10; fill: #993d00; fill-rule: nonzero; opacity: 1;" transform="" stroke-linecap="round" />
</g>
</svg>